<mxfile host="app.diagrams.net" agent="Mozilla/5.0 (Windows NT 10.0; Win64; x64) AppleWebKit/537.36 (KHTML, like Gecko) Chrome/128.0.0.0 Safari/537.36 Edg/128.0.0.0" version="24.7.12">
  <diagram name="ページ1" id="QKO6AF8U7mHI3oQW0q2v">
    <mxGraphModel dx="1853" dy="1592" grid="1" gridSize="10" guides="1" tooltips="1" connect="1" arrows="1" fold="1" page="1" pageScale="1" pageWidth="827" pageHeight="1169" math="0" shadow="0">
      <root>
        <mxCell id="0" />
        <mxCell id="1" parent="0" />
        <mxCell id="6NLqkJvEB3KMPdumIvZd-1" value="" style="rounded=0;whiteSpace=wrap;html=1;" vertex="1" parent="1">
          <mxGeometry x="-50" y="5" width="240" height="615" as="geometry" />
        </mxCell>
        <mxCell id="6NLqkJvEB3KMPdumIvZd-3" style="edgeStyle=orthogonalEdgeStyle;rounded=0;orthogonalLoop=1;jettySize=auto;html=1;" edge="1" parent="1" source="6NLqkJvEB3KMPdumIvZd-2">
          <mxGeometry relative="1" as="geometry">
            <mxPoint x="400" y="190" as="targetPoint" />
          </mxGeometry>
        </mxCell>
        <mxCell id="6NLqkJvEB3KMPdumIvZd-2" value="" style="rounded=0;whiteSpace=wrap;html=1;" vertex="1" parent="1">
          <mxGeometry x="224" y="-10" width="240" height="600" as="geometry" />
        </mxCell>
        <mxCell id="6NLqkJvEB3KMPdumIvZd-5" style="edgeStyle=orthogonalEdgeStyle;rounded=0;orthogonalLoop=1;jettySize=auto;html=1;exitX=1;exitY=0.5;exitDx=0;exitDy=0;" edge="1" parent="1" source="6NLqkJvEB3KMPdumIvZd-4">
          <mxGeometry relative="1" as="geometry">
            <mxPoint x="620" y="260" as="targetPoint" />
          </mxGeometry>
        </mxCell>
        <mxCell id="6NLqkJvEB3KMPdumIvZd-4" value="" style="rounded=0;whiteSpace=wrap;html=1;" vertex="1" parent="1">
          <mxGeometry x="500" width="250" height="600" as="geometry" />
        </mxCell>
        <mxCell id="6NLqkJvEB3KMPdumIvZd-42" style="edgeStyle=none;rounded=0;orthogonalLoop=1;jettySize=auto;html=1;" edge="1" parent="1" source="6NLqkJvEB3KMPdumIvZd-6" target="6NLqkJvEB3KMPdumIvZd-13">
          <mxGeometry relative="1" as="geometry" />
        </mxCell>
        <mxCell id="6NLqkJvEB3KMPdumIvZd-6" value="Actor" style="shape=umlActor;verticalLabelPosition=bottom;verticalAlign=top;html=1;outlineConnect=0;" vertex="1" parent="1">
          <mxGeometry x="-20" y="160" width="30" height="60" as="geometry" />
        </mxCell>
        <mxCell id="6NLqkJvEB3KMPdumIvZd-43" style="edgeStyle=none;rounded=0;orthogonalLoop=1;jettySize=auto;html=1;" edge="1" parent="1" source="6NLqkJvEB3KMPdumIvZd-7" target="6NLqkJvEB3KMPdumIvZd-13">
          <mxGeometry relative="1" as="geometry" />
        </mxCell>
        <mxCell id="6NLqkJvEB3KMPdumIvZd-7" value="カート画面確認&lt;div&gt;を表示する&lt;/div&gt;" style="ellipse;whiteSpace=wrap;html=1;" vertex="1" parent="1">
          <mxGeometry x="364" y="40" width="100" height="80" as="geometry" />
        </mxCell>
        <mxCell id="6NLqkJvEB3KMPdumIvZd-46" style="edgeStyle=none;rounded=0;orthogonalLoop=1;jettySize=auto;html=1;entryX=0;entryY=0.25;entryDx=0;entryDy=0;" edge="1" parent="1" source="6NLqkJvEB3KMPdumIvZd-13" target="6NLqkJvEB3KMPdumIvZd-4">
          <mxGeometry relative="1" as="geometry" />
        </mxCell>
        <mxCell id="6NLqkJvEB3KMPdumIvZd-13" value="カート確認&lt;div&gt;画面&lt;/div&gt;" style="ellipse;whiteSpace=wrap;html=1;" vertex="1" parent="1">
          <mxGeometry x="226" y="120" width="90" height="80" as="geometry" />
        </mxCell>
        <mxCell id="6NLqkJvEB3KMPdumIvZd-44" style="edgeStyle=none;rounded=0;orthogonalLoop=1;jettySize=auto;html=1;" edge="1" parent="1" source="6NLqkJvEB3KMPdumIvZd-17" target="6NLqkJvEB3KMPdumIvZd-19">
          <mxGeometry relative="1" as="geometry" />
        </mxCell>
        <mxCell id="6NLqkJvEB3KMPdumIvZd-17" value="～を&lt;div&gt;表示する&lt;/div&gt;" style="ellipse;whiteSpace=wrap;html=1;" vertex="1" parent="1">
          <mxGeometry x="354" y="190" width="120" height="80" as="geometry" />
        </mxCell>
        <mxCell id="6NLqkJvEB3KMPdumIvZd-19" value="～画面" style="ellipse;whiteSpace=wrap;html=1;" vertex="1" parent="1">
          <mxGeometry x="230" y="250" width="86" height="80" as="geometry" />
        </mxCell>
        <mxCell id="6NLqkJvEB3KMPdumIvZd-45" style="edgeStyle=none;rounded=0;orthogonalLoop=1;jettySize=auto;html=1;" edge="1" parent="1" source="6NLqkJvEB3KMPdumIvZd-21" target="6NLqkJvEB3KMPdumIvZd-23">
          <mxGeometry relative="1" as="geometry" />
        </mxCell>
        <mxCell id="6NLqkJvEB3KMPdumIvZd-21" value="「購入画面確認」&lt;div&gt;を表示する&lt;/div&gt;" style="ellipse;whiteSpace=wrap;html=1;" vertex="1" parent="1">
          <mxGeometry x="344" y="340" width="120" height="80" as="geometry" />
        </mxCell>
        <mxCell id="6NLqkJvEB3KMPdumIvZd-23" value="購入画面&lt;div&gt;確認&lt;/div&gt;" style="ellipse;whiteSpace=wrap;html=1;" vertex="1" parent="1">
          <mxGeometry x="231.5" y="390" width="87" height="80" as="geometry" />
        </mxCell>
        <mxCell id="6NLqkJvEB3KMPdumIvZd-25" value="「お買い上げありがとうございます」&lt;div&gt;というメッセージを&lt;/div&gt;&lt;div&gt;表示する&lt;/div&gt;" style="ellipse;whiteSpace=wrap;html=1;" vertex="1" parent="1">
          <mxGeometry x="350" y="460" width="120" height="80" as="geometry" />
        </mxCell>
        <mxCell id="6NLqkJvEB3KMPdumIvZd-28" value="カート？" style="ellipse;whiteSpace=wrap;html=1;" vertex="1" parent="1">
          <mxGeometry x="520" y="40" width="90" height="80" as="geometry" />
        </mxCell>
        <mxCell id="6NLqkJvEB3KMPdumIvZd-30" value="ユーザーの&lt;div&gt;既存確認をする&lt;/div&gt;" style="ellipse;whiteSpace=wrap;html=1;" vertex="1" parent="1">
          <mxGeometry x="610" y="120" width="120" height="80" as="geometry" />
        </mxCell>
        <mxCell id="6NLqkJvEB3KMPdumIvZd-47" style="edgeStyle=none;rounded=0;orthogonalLoop=1;jettySize=auto;html=1;" edge="1" parent="1" source="6NLqkJvEB3KMPdumIvZd-32" target="6NLqkJvEB3KMPdumIvZd-4">
          <mxGeometry relative="1" as="geometry" />
        </mxCell>
        <mxCell id="6NLqkJvEB3KMPdumIvZd-48" style="edgeStyle=none;rounded=0;orthogonalLoop=1;jettySize=auto;html=1;" edge="1" parent="1" source="6NLqkJvEB3KMPdumIvZd-32" target="6NLqkJvEB3KMPdumIvZd-34">
          <mxGeometry relative="1" as="geometry" />
        </mxCell>
        <mxCell id="6NLqkJvEB3KMPdumIvZd-32" value="注文履歴" style="ellipse;whiteSpace=wrap;html=1;" vertex="1" parent="1">
          <mxGeometry x="670" y="290" width="80" height="80" as="geometry" />
        </mxCell>
        <mxCell id="6NLqkJvEB3KMPdumIvZd-34" value="注文を&lt;div&gt;確定させる&lt;/div&gt;" style="ellipse;whiteSpace=wrap;html=1;" vertex="1" parent="1">
          <mxGeometry x="550" y="390" width="120" height="80" as="geometry" />
        </mxCell>
      </root>
    </mxGraphModel>
  </diagram>
</mxfile>
